HIERARCHY
ROOT root
{
	OFFSET 0.000000 0.000000 0.000000
	CHANNELS 6 Xposition Yposition Zposition Zrotation Yrotation Xrotation
	JOINT lhip
	{
		OFFSET 0.058581 -0.082280 -0.017664
		CHANNELS 3 Zrotation Yrotation Xrotation
		JOINT lknee
		{
			OFFSET 0.043451 -0.386469 0.008037
			CHANNELS 3 Zrotation Yrotation Xrotation
			JOINT lankle
			{
				OFFSET -0.014790 -0.426874 -0.037428
				CHANNELS 3 Zrotation Yrotation Xrotation
				JOINT ltoe
				{
					OFFSET 0.041054 -0.060286 0.122042
					CHANNELS 3 Zrotation Yrotation Xrotation
					End Site
					{
						OFFSET 0.000000 0.000000 0.000000
					}
				}
			}
		}
	}
	JOINT rhip
	{
		OFFSET -0.060310 -0.090513 -0.013543
		CHANNELS 3 Zrotation Yrotation Xrotation
		JOINT rknee
		{
			OFFSET -0.043257 -0.383688 -0.004843
			CHANNELS 3 Zrotation Yrotation Xrotation
			JOINT rankle
			{
				OFFSET 0.019056 -0.420046 -0.034562
				CHANNELS 3 Zrotation Yrotation Xrotation
				JOINT rtoe
				{
					OFFSET -0.034840 -0.062106 0.130323
					CHANNELS 3 Zrotation Yrotation Xrotation
					End Site
					{
						OFFSET 0.000000 0.000000 0.000000
					}
				}
			}
		}
	}
	JOINT lowerback
	{
		OFFSET 0.004439 0.124404 -0.038385
		CHANNELS 3 Zrotation Yrotation Xrotation
		JOINT upperback
		{
			OFFSET 0.004488 0.137956 0.026820
			CHANNELS 3 Zrotation Yrotation Xrotation
			JOINT chest
			{
				OFFSET -0.002265 0.056032 0.002855
				CHANNELS 3 Zrotation Yrotation Xrotation
				JOINT lowerneck
				{
					OFFSET -0.013390 0.211636 -0.033468
					CHANNELS 3 Zrotation Yrotation Xrotation
					JOINT upperneck
					{
						OFFSET 0.010113 0.088937 0.050410
						CHANNELS 3 Zrotation Yrotation Xrotation
						End Site
						{
							OFFSET 0.000000 0.000000 0.000000
						}
					}
				}
				JOINT lclavicle
				{
					OFFSET 0.071702 0.114000 -0.018898
					CHANNELS 3 Zrotation Yrotation Xrotation
					JOINT lshoulder
					{
						OFFSET 0.122921 0.045205 -0.019046
						CHANNELS 3 Zrotation Yrotation Xrotation
						JOINT lelbow
						{
							OFFSET 0.255332 -0.015649 -0.022946
							CHANNELS 3 Zrotation Yrotation Xrotation
							JOINT lwrist
							{
								OFFSET 0.265709 0.012698 -0.007375
								CHANNELS 3 Zrotation Yrotation Xrotation
								End Site
								{
									OFFSET 0.000000 0.000000 0.000000
								}
							}
						}
					}
				}
				JOINT rclavicle
				{
					OFFSET -0.082954 0.112472 -0.023707
					CHANNELS 3 Zrotation Yrotation Xrotation
					JOINT rshoulder
					{
						OFFSET -0.113228 0.046853 -0.008472
						CHANNELS 3 Zrotation Yrotation Xrotation
						JOINT relbow
						{
							OFFSET -0.260127 -0.014369 -0.031269
							CHANNELS 3 Zrotation Yrotation Xrotation
							JOINT rwrist
							{
								OFFSET -0.269108 0.006794 -0.006027
								CHANNELS 3 Zrotation Yrotation Xrotation
								End Site
								{
									OFFSET 0.000000 0.000000 0.000000
								}
							}
						}
					}
				}
			}
		}
	}
}
MOTION
Frames: 7
Frame Time: 0.033333
0.992550 1.150306 0.971148 -93.511311 -8.093964 70.406507 14.768553 -5.205093 -35.093812 -8.675022 5.896333 31.301810 -5.128885 3.520205 1.830966 0.000000 -0.000000 0.000000 -6.024270 -0.879001 24.550256 0.390210 11.615297 24.211289 1.378168 -2.669977 -24.927273 0.000000 -0.000000 0.000000 -3.313859 9.559509 10.136805 3.384477 -6.753592 10.498232 -0.613068 -0.315168 5.483102 0.200582 8.715362 10.220562 1.439943 -0.076095 13.937988 -25.810229 6.673062 1.458277 -61.268680 -1.258272 5.064732 9.658781 -25.590542 5.930692 -2.536691 -1.221131 -10.029852 26.522450 -4.394680 0.155814 56.822908 2.677953 7.741176 -15.286479 28.581885 -4.770412 4.557536 -2.051778 -5.309114 
0.977685 1.143113 0.968744 -93.588252 -7.861082 70.460703 14.724427 -5.191758 -34.488527 -8.614358 5.037585 29.989701 -6.075938 3.074851 3.650021 0.000000 -0.000000 0.000000 -6.356243 -0.940766 25.189079 0.273436 11.973990 24.830027 1.633943 -2.514547 -24.977517 0.000000 -0.000000 0.000000 -2.952679 9.298699 9.735464 3.399963 -6.817012 10.803236 -0.665330 -0.208786 5.268641 0.140997 8.595547 10.736617 1.508135 0.270964 14.135722 -25.815931 6.757190 1.612509 -61.553499 -0.798167 4.973773 9.841966 -25.998236 6.066856 -2.917357 -1.176622 -10.199378 26.505262 -4.316214 0.116448 56.720331 2.477820 7.526268 -15.347774 29.288229 -4.634579 7.780696 -2.245466 -5.736009 
0.962749 1.135179 0.966185 -93.737898 -7.597199 70.748030 14.785965 -5.087506 -34.210591 -8.637364 4.869161 29.430263 -6.321386 2.494769 4.538277 0.000000 -0.000000 0.000000 -6.919016 -0.990844 25.618861 0.262660 12.093880 25.455299 2.385384 -2.008818 -24.549350 0.000000 -0.000000 0.000000 -2.724076 9.203381 9.527010 3.630085 -6.776891 10.962518 -0.655180 -0.275764 5.150482 0.241754 8.355396 10.433306 0.959676 0.595681 15.036800 -25.754699 7.195015 1.488292 -61.928739 -0.959466 4.725896 9.736495 -25.583684 6.277920 -4.113879 -2.035647 -9.167733 27.003963 -4.464821 -0.452245 55.654019 3.178040 6.433084 -15.008731 28.525437 -4.759910 13.639236 2.049433 -2.405940 
0.947170 1.127273 0.963464 -93.902173 -7.344902 71.107783 14.774784 -4.938601 -34.031477 -8.726668 4.616556 29.483454 -6.442887 2.550287 5.236850 0.000000 -0.000000 0.000000 -7.035902 -0.648524 26.026230 0.155158 12.239284 26.127576 2.276440 -2.012822 -24.440735 0.000000 -0.000000 0.000000 -2.516395 9.133166 9.670779 3.727642 -6.812330 10.715231 -0.701685 -0.364331 5.466894 0.522830 8.760710 10.249915 0.937975 0.032024 14.538352 -25.915061 7.430096 1.250103 -61.573371 -0.681326 5.053501 9.196274 -26.029157 7.000096 -3.609033 -1.185276 -10.322731 26.819355 -4.579734 -0.519298 56.293086 3.338268 8.007261 -14.969042 29.918491 -4.895114 5.063006 -1.095142 -5.435177 
0.930852 1.118071 0.960538 -94.275737 -7.036593 71.863193 14.940004 -4.852843 -34.508393 -8.626167 4.947008 30.788989 -6.557298 2.739980 6.679431 0.000000 -0.000000 0.000000 -7.493976 -0.507659 26.459357 0.017223 12.792749 25.709179 2.260383 -1.575747 -24.213381 0.000000 -0.000000 0.000000 -2.191382 9.042866 9.638996 3.683229 -6.884020 10.662484 -0.833092 -0.471126 5.252904 0.533475 8.317845 10.493735 1.101510 0.245626 14.593994 -26.084285 7.380366 1.590157 -61.177804 -0.432438 4.709191 8.956299 -26.029649 7.091582 -3.754190 -1.106190 -10.289700 27.010428 -4.088613 -0.422367 56.131314 3.792713 7.838898 -15.126019 29.744855 -5.401640 4.579717 -0.799295 -4.598982 
0.914847 1.108858 0.957645 -94.213261 -6.585090 72.339632 14.928358 -4.869600 -34.887080 -9.225846 4.817676 32.838562 -8.464037 2.197061 9.904574 0.000000 -0.000000 0.000000 -7.405976 -0.284861 27.123714 -0.310567 12.957528 25.737467 1.837188 -1.667379 -23.766834 0.000000 -0.000000 0.000000 -2.185619 8.877324 9.900843 3.753725 -7.345055 11.468126 -0.778647 -0.383748 4.908648 0.419597 8.442429 10.132819 0.783762 0.434174 15.412731 -25.775319 6.943993 1.617873 -61.367416 -0.526419 4.483658 9.115443 -25.605458 7.337802 -3.793562 -1.530153 -10.388225 27.137983 -3.425483 -0.513192 55.952761 5.073926 7.504404 -14.442347 29.563229 -5.444476 5.250744 0.750956 -5.314726 
0.897669 1.099339 0.954574 -94.223279 -6.208745 73.598535 14.769645 -4.866904 -35.650598 -10.521510 4.358687 34.981479 -7.822607 0.582144 6.925450 0.000000 -0.000000 0.000000 -7.346250 -0.021459 26.923650 -0.578398 13.036146 25.757908 1.820085 -2.127111 -23.268211 0.000000 -0.000000 0.000000 -2.330803 8.823646 10.197423 3.815656 -7.596005 11.114472 -0.767274 -0.429850 4.857985 0.343432 7.485909 10.192080 0.639439 0.364923 15.296373 -25.555643 6.687290 1.929070 -61.129037 -0.602915 4.141082 9.118267 -25.475290 7.773955 -4.163308 -1.269522 -10.847749 26.668361 -3.128391 -0.519516 56.999782 5.585686 7.966258 -15.264138 29.581689 -5.420152 5.081539 0.193276 -5.442547 
